PathFileType	3	(X/Y/Z)	D:\minhoCalibration\240510\subject3_KPNP\preferred\preferred06.trc
DataRate	CameraRate	NumFrames	NumMarkers	Units	OrigDataRate	OrigDataStartFrame	OrigNumFrames
200.0	200.0	21	10	mm	200.0	544	140	
Frame#	Time	Left_Ankle_Outer1			Left_Ankle_Inner1			Left_Knee_Outer1			Left_Knee_Inner1			Left_Wrist1			Right_Wrist1			Right_Knee_Inner1			Right_Knee_Outer1			Right_Ankle_Inner1			Right_Ankle_Outer1			
		X1	Y1	Z1	X2	Y2	Z2	X3	Y3	Z3	X4	Y4	Z4	X5	Y5	Z5	X6	Y6	Z6	X7	Y7	Z7	X8	Y8	Z8	X9	Y9	Z9	X10	Y10	Z10	
544	2.71	-280.28687	82.364815	-532.7464	-335.02423	95.558632	-541.39148	-204.5517	505.974	-402.71994	-306.84061	509.23413	-403.72177	-109.8996	913.18018	-513.88605	-474.98895	979.31378	-495.84277	-364.54016	680.49243	-155.89293	-472.72659	732.6803	-170.8494	-451.76648	270.9935	-189.07637	-547.88501	296.16409	-216.16057
545	2.715	-281.82239	79.996964	-533.90521	-336.64743	93.165016	-542.42999	-206.03581	504.22824	-404.43527	-307.84811	507.49237	-405.20471	-110.20568	911.49353	-513.05212	-475.18143	975.26556	-497.97751	-368.64145	665.45941	-164.21609	-477.5575	718.71063	-177.10451	-453.60339	259.51831	-217.31358	-549.44757	285.4122	-244.30316
546	2.72	-282.94864	77.881378	-535.24249	-338.04739	90.682495	-543.4826	-207.25029	502.38101	-406.38321	-309.05597	505.42386	-407.43051	-112.76075	908.87543	-511.35272	-475.32477	971.80743	-499.01532	-372.65787	650.75958	-173.11345	-482.52271	704.716	-184.61455	-453.93668	249.03958	-244.89273	-550.38037	275.71725	-272.50043
547	2.725	-284.49933	75.493782	-536.24597	-339.38092	88.177711	-544.70703	-208.12256	500.32657	-408.51688	-309.74435	503.6438	-409.26065	-113.48861	906.96552	-510.49493	-475.46799	968.10303	-500.43549	-376.49655	636.41333	-182.50061	-487.58188	691.00043	-192.54597	-454.92404	239.4899	-272.78149	-550.67865	266.83206	-300.86652
548	2.73	-285.69766	73.227119	-537.35925	-340.84924	85.262329	-545.3139	-208.87415	498.12698	-410.69128	-310.14819	501.56384	-410.98087	-113.37446	905.1557	-510.02402	-475.68478	964.40808	-501.76303	-380.24048	622.34186	-192.39078	-492.01343	677.53345	-201.41037	-455.22345	230.56725	-300.20422	-550.81732	258.54306	-328.98575
549	2.735	-287.03738	71.134529	-538.28882	-342.18738	82.823364	-546.26282	-209.42336	495.84833	-413.00955	-310.88831	499.39282	-412.81403	-113.47986	903.19788	-509.71634	-476.08377	960.58813	-503.45575	-384.01364	608.72418	-202.6694	-497.00739	664.45612	-210.41454	-455.17175	222.47955	-327.3183	-550.40955	251.2025	-357.25916
550	2.74	-288.52969	68.620804	-539.07092	-343.54849	80.394882	-547.32336	-209.93581	493.48892	-415.26004	-310.86292	496.9989	-414.50552	-115.38381	900.7746	-508.43054	-476.25467	956.89026	-505.8623	-387.76868	595.45734	-213.42941	-501.82156	651.99011	-219.97958	-454.57144	215.13957	-354.09314	-549.52338	244.95332	-384.38574
551	2.745	-290.18665	66.560066	-539.62836	-344.8064	78.337769	-548.2962	-210.14426	491.17239	-417.48499	-311.76132	494.82932	-416.28265	-115.78844	898.76312	-507.95471	-477.28683	952.90936	-506.66202	-391.47827	582.59668	-224.38875	-505.80447	640.32825	-230.3732	-453.68185	208.40511	-380.59555	-547.61377	239.02142	-412.01108
552	2.75	-290.92758	65.721077	-540.62006	-346.29837	76.921021	-548.91693	-210.32114	489.0195	-419.03345	-311.53085	492.66827	-417.50726	-116.26065	896.76068	-507.44724	-477.78683	948.84955	-508.91275	-394.75323	570.35931	-235.3757	-509.99582	629.27844	-240.64772	-452.79062	199.60104	-408.50238	-545.89362	233.50458	-438.69952
553	2.755	-292.03851	65.255081	-540.9328	-347.35187	76.26136	-549.19733	-210.0907	487.12943	-419.90454	-312.20749	490.32599	-419.06253	-116.67405	894.72852	-506.91824	-478.35522	944.65771	-511.27179	-398.35834	558.6803	-247.37085	-513.36798	618.65387	-251.46663	-450.72614	194.45288	-434.04242	-543.66595	228.98312	-464.79742
554	2.76	-292.65952	65.178391	-540.91638	-348.07523	76.166878	-549.12677	-210.27576	485.52173	-420.24506	-312.80029	488.76312	-420.65042	-117.08692	893.00586	-506.48636	-478.89911	940.46729	-514.04352	-401.77686	547.78021	-259.4061	-516.84766	607.7384	-262.61298	-448.46533	190.56914	-458.51379	-540.75226	224.7713	-490.48621
555	2.765	-292.87585	65.388954	-540.77277	-348.24884	76.585762	-549.13745	-210.28545	484.49088	-419.95676	-312.61206	487.3688	-421.91302	-117.40759	891.58337	-506.20258	-479.55478	936.30939	-516.77893	-405.06042	537.52527	-271.65781	-520.30072	596.91248	-274.3548	-445.63263	186.44244	-482.87949	-537.44928	221.30574	-515.56915
556	2.77	-292.65295	65.653229	-540.53363	-347.9765	76.892639	-548.83923	-210.21414	484.32703	-419.12668	-313.40982	487.51404	-422.85031	-118.10047	890.36377	-505.70959	-480.87067	931.71332	-519.3006	-408.43701	527.98907	-284.09531	-524.21509	586.05286	-286.84186	-442.05899	182.9915	-506.60175	-533.8512	218.25049	-539.76721
557	2.775	-292.21262	65.875992	-540.33228	-347.41855	77.192711	-548.60413	-210.03462	484.92447	-417.98422	-313.99353	488.14658	-422.9339	-118.74821	889.5802	-505.44208	-480.87869	928.73462	-522.86469	-411.85916	518.98096	-296.51099	-527.73706	575.87738	-300.40344	-438.21127	179.67572	-529.68427	-530.16412	215.52287	-563.06934
558	2.78	-291.5697	65.93399	-540.10217	-346.78546	77.546829	-548.47137	-209.72926	486.3446	-416.6991	-311.74997	488.81317	-420.35236	-119.78093	889.24805	-505.05154	-481.47705	925.56384	-526.10718	-415.39697	510.67014	-308.95926	-531.56921	565.6925	-314.97836	-433.69064	177.20401	-551.96417	-524.94257	212.46092	-586.65619
559	2.785	-290.70676	66.082275	-539.94281	-345.95154	77.83728	-548.31519	-209.27579	487.94254	-415.1972	-310.33569	489.64993	-417.82214	-120.5594	889.39691	-504.74161	-482.34534	921.78113	-529.89709	-418.83926	503.00836	-321.54111	-535.46271	555.99835	-329.96472	-428.80542	174.80576	-573.27625	-519.97949	210.12259	-608.38837
560	2.79	-290.00397	65.961906	-539.57715	-344.36963	78.286743	-549.02203	-208.9516	489.54694	-413.79602	-309.7941	492.03366	-416.11188	-122.01429	889.69421	-504.09497	-482.95966	918.92041	-533.64081	-422.3761	496.01154	-334.17737	-538.85742	547.13824	-346.49753	-423.53961	172.81531	-593.60553	-514.34729	208.231	-629.82263
561	2.795	-289.20419	65.981766	-539.28156	-344.06497	78.120583	-548.21381	-208.53729	490.95599	-412.90424	-308.90704	493.18008	-414.11798	-123.08851	890.57397	-503.38464	-483.44727	916.51831	-537.53534	-425.66824	489.6459	-346.86926	-541.89008	540.24146	-362.91818	-417.66705	170.81844	-613.22748	-507.99762	206.30334	-651.00537
562	2.8	-288.63144	66.115326	-538.97028	-343.45129	78.470894	-548.112	-208.35684	491.85199	-412.44891	-308.15479	494.13916	-411.88596	-124.2544	891.6781	-502.52277	-483.90472	914.43951	-541.53394	-428.52295	483.36172	-360.15646	-545.21649	532.48352	-379.88297	-411.52417	169.16402	-631.93896	-500.75983	205.10207	-671.0639
563	2.805	-288.09042	66.107971	-538.80304	-342.9964	78.526688	-548.08423	-208.46202	492.29233	-412.41052	-307.59964	495.25851	-409.72217	-125.64772	892.88678	-501.34595	-483.95483	912.97638	-545.98334	-431.57419	478.31296	-373.2804	-547.84857	526.33417	-397.37335	-404.87988	167.86681	-649.53662	-493.49023	202.90428	-690.73083
564	2.81	-288.13693	65.999512	-538.68896	-342.80591	78.529366	-548.14252	-208.89037	492.5592	-412.65311	-308.14075	495.79651	-408.36523	-127.1255	894.16699	-499.85397	-483.8746	911.85468	-550.66827	-434.34625	473.58514	-386.67212	-550.29865	521.67834	-414.00586	-397.94147	166.76773	-666.30524	-485.8992	201.34814	-708.5033
